<svg version="1.2" xmlns="http://www.w3.org/2000/svg" viewBox="0 0 19 20" width="19" height="20">
	<title>bell-svg</title>
	<style>
		.s0 { fill: none;stroke: #64748b;stroke-linecap: round;stroke-linejoin: round;stroke-width: 1.5 } 
		.s1 { fill: #ed4f9d;stroke: #ffffff } 
	</style>
	<path id="Layer" fill-rule="evenodd" class="s0" d="m7 3c0-0.5 0.2-1 0.6-1.4 0.4-0.4 0.9-0.6 1.4-0.6 0.5 0 1 0.2 1.4 0.6 0.4 0.4 0.6 0.9 0.6 1.4 1.1 0.5 2.1 1.4 2.8 2.4 0.7 1.1 1.1 2.3 1.2 3.6v3q0.1 0.9 0.6 1.7 0.6 0.8 1.4 1.3h-16q0.8-0.5 1.4-1.3 0.5-0.8 0.6-1.7v-3c0.1-1.3 0.5-2.5 1.2-3.6 0.7-1 1.7-1.9 2.8-2.4z"/>
	<path id="Layer" fill-rule="evenodd" class="s0" d="m6 15v1c0 0.8 0.3 1.6 0.9 2.1 0.5 0.6 1.3 0.9 2.1 0.9 0.8 0 1.6-0.3 2.1-0.9 0.6-0.5 0.9-1.3 0.9-2.1v-1"/>
	<path id="Layer" class="s1" d="m15 7.5c-1.9 0-3.5-1.6-3.5-3.5 0-1.9 1.6-3.5 3.5-3.5 1.9 0 3.5 1.6 3.5 3.5 0 1.9-1.6 3.5-3.5 3.5z"/>
</svg>