<svg width="14" height="4" viewBox="0 0 14 4" fill="none" xmlns="http://www.w3.org/2000/svg">
<path d="M2.33341 2.66668C2.7016 2.66668 3.00008 2.3682 3.00008 2.00001C3.00008 1.63182 2.7016 1.33334 2.33341 1.33334C1.96522 1.33334 1.66675 1.63182 1.66675 2.00001C1.66675 2.3682 1.96522 2.66668 2.33341 2.66668Z" stroke="#64748B" stroke-width="1.5" stroke-linecap="round" stroke-linejoin="round"/>
<path d="M7.00016 2.66668C7.36835 2.66668 7.66683 2.3682 7.66683 2.00001C7.66683 1.63182 7.36835 1.33334 7.00016 1.33334C6.63197 1.33334 6.3335 1.63182 6.3335 2.00001C6.3335 2.3682 6.63197 2.66668 7.00016 2.66668Z" stroke="#64748B" stroke-width="1.5" stroke-linecap="round" stroke-linejoin="round"/>
<path d="M11.6667 2.66668C12.0349 2.66668 12.3333 2.3682 12.3333 2.00001C12.3333 1.63182 12.0349 1.33334 11.6667 1.33334C11.2985 1.33334 11 1.63182 11 2.00001C11 2.3682 11.2985 2.66668 11.6667 2.66668Z" stroke="#64748B" stroke-width="1.5" stroke-linecap="round" stroke-linejoin="round"/>
</svg>
