<svg width="40" height="40" viewBox="0 0 40 40" fill="none" xmlns="http://www.w3.org/2000/svg">
<circle opacity="0.5" cx="20" cy="20" r="19.5" stroke="white"/>
<g clip-path="url(#clip0_54_705)">
<path d="M20.1747 18.1852C21.9747 18.5713 23.7468 17.425 24.1329 15.625C24.5189 13.825 23.3727 12.0528 21.5727 11.6668C19.7727 11.2807 18.0005 12.4269 17.6145 14.227C17.2284 16.027 18.3746 17.7991 20.1747 18.1852Z" stroke="white" stroke-width="1.5" stroke-linecap="round" stroke-linejoin="round"/>
<path d="M13.9456 25.3721C15.7457 25.7581 17.5178 24.6119 17.9039 22.8119C18.2899 21.0119 17.1437 19.2397 15.3437 18.8536C13.5437 18.4676 11.7715 19.6138 11.3855 21.4138C10.9994 23.2139 12.1456 24.986 13.9456 25.3721Z" stroke="white" stroke-width="1.5" stroke-linecap="round" stroke-linejoin="round"/>
<path d="M22.9085 27.2944C24.7086 27.6804 26.4807 26.5342 26.8668 24.7342C27.2528 22.9342 26.1066 21.162 24.3066 20.776C22.5066 20.3899 20.7344 21.5361 20.3483 23.3362C19.9623 25.1362 21.1085 26.9083 22.9085 27.2944Z" stroke="white" stroke-width="1.5" stroke-linecap="round" stroke-linejoin="round"/>
</g>
<defs>
<clipPath id="clip0_54_705">
<rect width="20" height="20" fill="white" transform="translate(12.3193 7.12529) rotate(12.1051)"/>
</clipPath>
</defs>
</svg>
