<svg width="20" height="20" viewBox="0 0 20 20" fill="none" xmlns="http://www.w3.org/2000/svg">
<g id="Group">
<path id="Vector" d="M10 6V10L12 12" stroke="#ED4F9D" stroke-width="1.5" stroke-linecap="round" stroke-linejoin="round"/>
<path id="Vector_2" d="M1.0498 9.00001C1.2739 6.80006 2.30007 4.75962 3.93254 3.26797C5.56501 1.77633 7.6895 0.937892 9.90068 0.912636C12.1119 0.88738 14.255 1.67707 15.9211 3.13104C17.5872 4.58501 18.6597 6.60149 18.934 8.79574C19.2083 10.99 18.6651 13.2084 17.4082 15.0278C16.1512 16.8471 14.2684 18.14 12.1191 18.6599C9.96972 19.1797 7.70421 18.89 5.7548 17.8461C3.80539 16.8022 1.0498 13 1.0498 13M1.0498 18V13M1.0498 13H6.0498" stroke="#ED4F9D" stroke-width="1.5" stroke-linecap="round" stroke-linejoin="round"/>
</g>
</svg>
